<?xml version="1.0" encoding="UTF-8"?>
<!-- Created with Inkscape (http://www.inkscape.org/) -->
<svg width="205.33" height="122.67" version="1.1" viewBox="0 0 205.33 122.67" xml:space="preserve" xmlns="http://www.w3.org/2000/svg" xmlns:cc="http://creativecommons.org/ns#" xmlns:dc="http://purl.org/dc/elements/1.1/" xmlns:rdf="http://www.w3.org/1999/02/22-rdf-syntax-ns#"><metadata><rdf:RDF><cc:Work rdf:about=""><dc:format>image/svg+xml</dc:format><dc:type rdf:resource="http://purl.org/dc/dcmitype/StillImage"/><dc:title/></cc:Work></rdf:RDF></metadata><g transform="matrix(1.3333 0 0 -1.3333 0 122.67)"><g transform="scale(.1)"><path d="m971.02 255.3 77.5-8.821v-94.5l-77.5 12.86v90.461m-71.141 8.09 71.141-8.09v-90.461l-71.141 11.789v86.762m-65.578 7.461 65.578-7.461v-86.762l-65.578 10.863v83.36m-60.672 6.91 60.672-6.91v-83.36l-60.672 10.039v80.231m-56.25 6.41 56.25-6.41v-80.231l-56.25 9.34v77.301m-52.258 5.937 52.258-5.937v-77.301l-52.258 8.629v74.609m-48.75 5.582 48.75-5.582v-74.609l-48.75 8.09v72.101m-45.551 5.161 45.551-5.161v-72.101l-45.551 7.531v69.731m400.2 44.918 77.5-4.801v-94.489l-77.5 8.821v90.469m-71.141 4.421 71.141-4.421v-90.469l-71.141 8.09v86.8m-65.578 4.059 65.578-4.059v-86.8l-65.578 7.461v83.398m-60.672 3.75 60.672-3.75v-83.398l-60.672 6.91v80.238m-56.25 3.512 56.25-3.512v-80.238l-56.25 6.41v77.34m-52.258 3.25 52.258-3.25v-77.34l-52.258 5.937v74.653m-48.75 3 48.75-3v-74.653l-48.75 5.582v72.071m-45.551 2.82 45.551-2.82v-72.071l-45.551 5.161v69.73m400.2 65.66 77.5-0.781v-94.492l-77.5 4.801v90.472m-71.141 0.699 71.141-0.699v-90.472l-71.141 4.421v86.75m-65.578 0.711 65.578-0.711v-86.75l-65.578 4.059v83.402m-60.672 0.578 60.672-0.578v-83.402l-60.672 3.75v80.23m-56.25 0.59 56.25-0.59v-80.23l-56.25 3.512v77.308m-52.258 0.551 52.258-0.551v-77.308l-52.258 3.25v74.609m-48.75 0.469 48.75-0.469v-74.609l-48.75 3v72.078m-45.551 0.461 45.551-0.461v-72.078l-45.551 2.82v69.719m400.2 86.41 77.5 3.238v-94.488l-77.5 0.781v90.469m-71.141-2.969 71.141 2.969v-90.469l-71.141 0.699v86.801m-65.578-2.73 65.578 2.73v-86.801l-65.578 0.711v83.36m-60.672-2.543 60.672 2.543v-83.36l-60.672 0.578v80.239m-56.25-2.348 56.25 2.348v-80.239l-56.25 0.59v77.301m-52.258-2.141 52.258 2.141v-77.301l-52.258 0.551v74.609m-48.75-2.039 48.75 2.039v-74.609l-48.75 0.469v72.101m-45.551-1.91 45.551 1.91v-72.101l-45.551 0.461v69.73m400.2 107.15 77.5 7.261v-94.492l-77.5-3.238v90.469m-71.141-6.641 71.141 6.641v-90.469l-71.141-2.969v86.797m-65.578-6.129 65.578 6.129v-86.797l-65.578-2.73v83.398m-60.672-5.668 60.672 5.668v-83.398l-60.672-2.543v80.273m-56.25-5.273 56.25 5.273v-80.273l-56.25-2.348v77.348m-52.258-4.879 52.258 4.879v-77.348l-52.258-2.141v74.61m-48.75-4.578 48.75 4.578v-74.61l-48.75-2.039v72.071m-45.551-4.25 45.551 4.25v-72.071l-45.551-1.91v69.731m400.2 127.89 77.5 11.289v-94.5l-77.5-7.261v90.472m-71.141-10.351 71.141 10.351v-90.472l-71.141-6.641v86.762m-65.578-9.539 65.578 9.539v-86.762l-65.578-6.129v83.352m-60.672-8.782 60.672 8.782v-83.352l-60.672-5.668v80.238m-56.25-8.21 56.25 8.21v-80.238l-56.25-5.273v77.301m-52.258-7.579 52.258 7.579v-77.301l-52.258-4.879v74.601m-48.75-7.101 48.75 7.101v-74.601l-48.75-4.578v72.078m-45.551-6.61 45.551 6.61v-72.078l-45.551-4.25v69.718m400.2 148.64 77.5 15.27v-94.45l-77.5-11.289v90.469m-71.141-14.031 71.141 14.031v-90.469l-71.141-10.351v86.789m-65.578-12.93 65.578 12.93v-86.789l-65.578-9.539v83.398m-60.672-11.949 60.672 11.949v-83.398l-60.672-8.782v80.231m-56.25-11.09 56.25 11.09v-80.231l-56.25-8.21v77.351m-52.258-10.32 52.258 10.32v-77.351l-52.258-7.579v74.61m-48.75-9.61 48.75 9.61v-74.61l-48.75-7.101v72.101m-45.551-8.98 45.551 8.98v-72.101l-45.551-6.61v69.731m400.2 169.38 77.5 19.289v-94.488l-77.5-15.27v90.469m-71.141-17.699 71.141 17.699v-90.469l-71.141-14.031v86.801m-65.578-16.371 65.578 16.371v-86.801l-65.578-12.93v83.36m-60.672-15.079 60.672 15.079v-83.36l-60.672-11.949v80.23m-56.25-14.019 56.25 14.019v-80.23l-56.25-11.09v77.301m-52.258-13.012 52.258 13.012v-77.301l-52.258-10.32v74.609m-48.75-12.148 48.75 12.148v-74.609l-48.75-9.61v72.071m-45.551-11.321 45.551 11.321v-72.071l-45.551-8.98v69.73" fill="#fff"/><path d="m971.02 255.31 77.5-8.832v-94.489l-77.5 12.848v90.473m-71.141 8.078 71.141-8.078v-90.473l-71.141 11.793v86.758m-65.578 7.461 65.578-7.461v-86.758l-65.578 10.859v83.36m-60.672 6.922 60.672-6.922v-83.36l-60.672 10.039v80.243m-56.25 6.398 56.25-6.398v-80.243l-56.25 9.34v77.301m-52.258 5.941 52.258-5.941v-77.301l-52.258 8.629v74.613m-48.75 5.59 48.75-5.59v-74.613l-48.75 8.09v72.113m-45.551 5.149 45.551-5.149v-72.113l-45.551 7.543v69.719m400.2 44.929 77.5-4.808v-94.492l-77.5 8.832v90.468m-71.141 4.411 71.141-4.411v-90.468l-71.141 8.078v86.801m-65.578 4.058 65.578-4.058v-86.801l-65.578 7.461v83.398m-60.672 3.75 60.672-3.75v-83.398l-60.672 6.922v80.226m-56.25 3.524 56.25-3.524v-80.226l-56.25 6.398v77.352m-52.258 3.238 52.258-3.238v-77.352l-52.258 5.941v74.649m-48.75 3.012 48.75-3.012v-74.649l-48.75 5.59v72.071m-45.551 2.808 45.551-2.808v-72.071l-45.551 5.149v69.73m400.2 65.66 77.5-0.781v-94.488l-77.5 4.808v90.461m-71.141 0.711 71.141-0.711v-90.461l-71.141 4.411v86.761m-65.578 0.699 65.578-0.699v-86.761l-65.578 4.058v83.402m-60.672 0.59 60.672-0.59v-83.402l-60.672 3.75v80.242m-56.25 0.578 56.25-0.578v-80.242l-56.25 3.524v77.296m-52.258 0.551 52.258-0.551v-77.296l-52.258 3.238v74.609m-48.75 0.469 48.75-0.469v-74.609l-48.75 3.012v72.066m-45.551 0.473 45.551-0.473v-72.066l-45.551 2.808v69.731m400.2 86.398 77.5 3.242v-94.492l-77.5 0.781v90.469m-71.141-2.969 71.141 2.969v-90.469l-71.141 0.711v86.789m-65.578-2.73 65.578 2.73v-86.789l-65.578 0.699v83.36m-60.672-2.539 60.672 2.539v-83.36l-60.672 0.59v80.231m-56.25-2.34 56.25 2.34v-80.231l-56.25 0.578v77.313m-52.258-2.152 52.258 2.152v-77.313l-52.258 0.551v74.61m-48.75-2.028 48.75 2.028v-74.61l-48.75 0.469v72.113m-45.551-1.922 45.551 1.922v-72.113l-45.551 0.473v69.718m400.2 107.15 77.5 7.269v-94.5l-77.5-3.242v90.473m-71.141-6.641 71.141 6.641v-90.473l-71.141-2.969v86.801m-65.578-6.133 65.578 6.133v-86.801l-65.578-2.73v83.398m-60.672-5.668 60.672 5.668v-83.398l-60.672-2.539v80.269m-56.25-5.269 56.25 5.269v-80.269l-56.25-2.34v77.34m-52.258-4.883 52.258 4.883v-77.34l-52.258-2.152v74.609m-48.75-4.566 48.75 4.566v-74.609l-48.75-2.028v72.071m-45.551-4.262 45.551 4.262v-72.071l-45.551-1.922v69.731m400.2 127.89 77.5 11.29v-94.489l-77.5-7.269v90.468m-71.141-10.351 71.141 10.351v-90.468l-71.141-6.641v86.758m-65.578-9.527 65.578 9.527v-86.758l-65.578-6.133v83.364m-60.672-8.793 60.672 8.793v-83.364l-60.672-5.668v80.239m-56.25-8.2 56.25 8.2v-80.239l-56.25-5.269v77.308m-52.258-7.578 52.258 7.578v-77.308l-52.258-4.883v74.613m-48.75-7.113 48.75 7.113v-74.613l-48.75-4.566v72.066m-45.551-6.598 45.551 6.598v-72.066l-45.551-4.262v69.73m400.2 148.63 77.5 15.27v-94.449l-77.5-11.29v90.469m-71.141-14.019 71.141 14.019v-90.469l-71.141-10.351v86.801m-65.578-12.93 65.578 12.93v-86.801l-65.578-9.527v83.398m-60.672-11.961 60.672 11.961v-83.398l-60.672-8.793v80.23m-56.25-11.09 56.25 11.09v-80.23l-56.25-8.2v77.34m-52.258-10.308 52.258 10.308v-77.34l-52.258-7.578v74.61m-48.75-9.61 48.75 9.61v-74.61l-48.75-7.113v72.113m-45.551-8.992 45.551 8.992v-72.113l-45.551-6.598v69.719m400.2 169.38 77.5 19.293v-94.492l-77.5-15.27v90.469m-71.141-17.699 71.141 17.699v-90.469l-71.141-14.019v86.789m-65.578-16.367 65.578 16.367v-86.789l-65.578-12.93v83.352m-60.672-15.071 60.672 15.071v-83.352l-60.672-11.961v80.242m-56.25-14.031 56.25 14.031v-80.242l-56.25-11.09v77.301m-52.258-13 52.258 13v-77.301l-52.258-10.308v74.609m-48.75-12.148 48.75 12.148v-74.609l-48.75-9.61v72.071m-45.551-11.332 45.551 11.332v-72.071l-45.551-8.992v69.731" fill="none" stroke="#000" stroke-linecap="round" stroke-miterlimit="1" stroke-width="4.4"/><path d="m570 229.99v560l480 120v-760z" fill="none" stroke="#000" stroke-width="8"/><path d="m1480.7 299.87 48.48 6.059v-74.688l-48.48-8.051v76.68m-51.13-6.359 51.13 6.359v-76.68l-51.13-8.511v78.832m-54.06-6.723 54.06 6.723v-78.832l-54.06-8.95v81.059m-57.23-7.109 57.23 7.109v-81.059l-57.23-9.488v83.438m-60.66-7.539 60.66 7.539v-83.438l-60.66-10.082v85.981m-64.46-8.051 64.46 8.051v-85.981l-64.46-10.699v88.629m-68.59-8.508 68.59 8.508v-88.629l-68.59-11.371v91.492m-73.16-9.102 73.16 9.102v-91.492l-73.16-12.149v94.539m429.29 130.11 48.48 4.031v-74.691l-48.48-6.059v76.719m-51.13-4.25 51.13 4.25v-76.719l-51.13-6.359v78.828m-54.06-4.461 54.06 4.461v-78.828l-54.06-6.723v81.09m-57.23-4.758 57.23 4.758v-81.09l-57.23-7.109v83.441m-60.66-5.039 60.66 5.039v-83.441l-60.66-7.539v85.941m-64.46-5.352 64.46 5.352v-85.941l-64.46-8.051v88.64m-68.59-5.671 68.59 5.671v-88.64l-68.59-8.508v91.477m-73.16-6.09 73.16 6.09v-91.477l-73.16-9.102v94.489m429.29 112.34 48.48 1.992v-74.68l-48.48-4.031v76.719m-51.13-2.149 51.13 2.149v-76.719l-51.13-4.25v78.82m-54.06-2.219 54.06 2.219v-78.82l-54.06-4.461v81.062m-57.23-2.39 57.23 2.39v-81.062l-57.23-4.758v83.43m-60.66-2.5 60.66 2.5v-83.43l-60.66-5.039v85.969m-64.46-2.692 64.46 2.692v-85.969l-64.46-5.352v88.629m-68.59-2.847 68.59 2.847v-88.629l-68.59-5.671v91.453m-73.16-3.012 73.16 3.012v-91.453l-73.16-6.09v94.531m429.29 94.492h48.48v-74.691l-48.48-1.992v76.683m-51.13 0h51.13v-76.683l-51.13-2.149v78.832m-54.06 0h54.06v-78.832l-54.06-2.219v81.051m-57.23 0h57.23v-81.051l-57.23-2.39v83.441m-60.66 0h60.66v-83.441l-60.66-2.5v85.941m-64.46 0h64.46v-85.941l-64.46-2.692v88.633m-68.59 0h68.59v-88.633l-68.59-2.847v91.48m-73.16 0h73.16v-91.48l-73.16-3.012v94.492m429.29 76.719 48.48-2.031v-74.688h-48.48v76.719m-51.13 2.109 51.13-2.109v-76.719h-51.13v78.828m-54.06 2.27 54.06-2.27v-78.828h-54.06v81.098m-57.23 2.34 57.23-2.34v-81.098h-57.23v83.438m-60.66 2.539 60.66-2.539v-83.438h-60.66v85.977m-64.46 2.652 64.46-2.652v-85.977h-64.46v88.629m-68.59 2.859 68.59-2.859v-88.629h-68.59v91.488m-73.16 3.04 73.16-3.04v-91.488h-73.16v94.528m429.29 58.871 48.48-3.981v-74.73l-48.48 2.031v76.68m-51.13 4.261 51.13-4.261v-76.68l-51.13 2.109v78.832m-54.06 4.489 54.06-4.489v-78.832l-54.06 2.27v81.051m-57.23 4.73 57.23-4.73v-81.051l-57.23 2.34v83.441m-60.66 5.039 60.66-5.039v-83.441l-60.66 2.539v85.941m-64.46 5.352 64.46-5.352v-85.941l-64.46 2.652v88.641m-68.59 5.699 68.59-5.699v-88.641l-68.59 2.859v91.481m-73.16 6.051 73.16-6.051v-91.481l-73.16 3.04v94.492m429.29 41.097 48.48-6.019v-74.68l-48.48 3.981v76.718m-51.13 6.371 51.13-6.371v-76.718l-51.13 4.261v78.828m-54.06 6.711 54.06-6.711v-78.828l-54.06 4.489v81.05m-57.23 7.149 57.23-7.149v-81.05l-57.23 4.73v83.469m-60.66 7.539 60.66-7.539v-83.469l-60.66 5.039v85.969m-64.46 8.012 64.46-8.012v-85.969l-64.46 5.352v88.629m-68.59 8.55 68.59-8.55v-88.629l-68.59 5.699v91.48m-73.16 9.11 73.16-9.11v-91.48l-73.16 6.051v94.539m429.29 23.281 48.48-8.051v-74.691l-48.48 6.019v76.723m-51.13 8.469 51.13-8.469v-76.723l-51.13 6.371v78.821m-54.06 8.988 54.06-8.988v-78.821l-54.06 6.711v81.098m-57.23 9.492 57.23-9.492v-81.098l-57.23 7.149v83.441m-60.66 10.039 60.66-10.039v-83.441l-60.66 7.539v85.941m-64.46 10.7 64.46-10.7v-85.941l-64.46 8.012v88.629m-68.59 11.371 68.59-11.371v-88.629l-68.59 8.55v91.45m-73.16 12.148 73.16-12.148v-91.45l-73.16 9.11v94.488" fill="#fff"/><g fill="none" stroke="#000"><path d="m1480.7 299.88 48.48 6.051v-74.692l-48.48-8.039v76.68m-51.13-6.371 51.13 6.371v-76.68l-51.13-8.519v78.828m-54.06-6.719 54.06 6.719v-78.828l-54.06-8.942v81.051m-57.23-7.109 57.23 7.109v-81.051l-57.23-9.5v83.442m-60.66-7.543 60.66 7.543v-83.442l-60.66-10.07v85.969m-64.46-8.039 64.46 8.039v-85.969l-64.46-10.711v88.641m-68.59-8.52 68.59 8.52v-88.641l-68.59-11.359v91.48m-73.16-9.101 73.16 9.101v-91.48l-73.16-12.149v94.528m429.29 130.12 48.48 4.019v-74.687l-48.48-6.051v76.719m-51.13-4.262 51.13 4.262v-76.719l-51.13-6.371v78.828m-54.06-4.457 54.06 4.457v-78.828l-54.06-6.719v81.09m-57.23-4.762 57.23 4.762v-81.09l-57.23-7.109v83.437m-60.66-5.039 60.66 5.039v-83.437l-60.66-7.543v85.941m-64.46-5.351 64.46 5.351v-85.941l-64.46-8.039v88.629m-68.59-5.668 68.59 5.668v-88.629l-68.59-8.52v91.481m-73.16-6.09 73.16 6.09v-91.481l-73.16-9.101v94.492m429.29 112.34 48.48 2v-74.692l-48.48-4.019v76.711m-51.13-2.141 51.13 2.141v-76.711l-51.13-4.262v78.832m-54.06-2.23 54.06 2.23v-78.832l-54.06-4.457v81.059m-57.23-2.379 57.23 2.379v-81.059l-57.23-4.762v83.442m-60.66-2.5 60.66 2.5v-83.442l-60.66-5.039v85.981m-64.46-2.7 64.46 2.7v-85.981l-64.46-5.351v88.632m-68.59-2.851 68.59 2.851v-88.632l-68.59-5.668v91.449m-73.16-3.012 73.16 3.012v-91.449l-73.16-6.09v94.527m429.29 94.492h48.48v-74.679l-48.48-2v76.679m-51.13 0h51.13v-76.679l-51.13-2.141v78.82m-54.06 0h54.06v-78.82l-54.06-2.23v81.05m-57.23 0h57.23v-81.05l-57.23-2.379v83.429m-60.66 0h60.66v-83.429l-60.66-2.5v85.929m-64.46 0h64.46v-85.929l-64.46-2.7v88.629m-68.59 0h68.59v-88.629l-68.59-2.851v91.48m-73.16 0h73.16v-91.48l-73.16-3.012v94.492m429.29 76.719 48.48-2.027v-74.692h-48.48v76.719m-51.13 2.109 51.13-2.109v-76.719h-51.13v78.828m-54.06 2.27 54.06-2.27v-78.828h-54.06v81.098m-57.23 2.344 57.23-2.344v-81.098h-57.23v83.442m-60.66 2.539 60.66-2.539v-83.442h-60.66v85.981m-64.46 2.66 64.46-2.66v-85.981h-64.46v88.641m-68.59 2.848 68.59-2.848v-88.641h-68.59v91.489m-73.16 3.043 73.16-3.043v-91.489h-73.16v94.532m429.29 58.867 48.48-3.981v-74.726l-48.48 2.027v76.68m-51.13 4.261 51.13-4.261v-76.68l-51.13 2.109v78.832m-54.06 4.489 54.06-4.489v-78.832l-54.06 2.27v81.051m-57.23 4.73 57.23-4.73v-81.051l-57.23 2.344v83.437m-60.66 5.039 60.66-5.039v-83.437l-60.66 2.539v85.937m-64.46 5.352 64.46-5.352v-85.937l-64.46 2.66v88.629m-68.59 5.699 68.59-5.699v-88.629l-68.59 2.848v91.48m-73.16 6.063 73.16-6.063v-91.48l-73.16 3.043v94.5m429.29 41.089 48.48-6.011v-74.692l-48.48 3.981v76.722m-51.13 6.368 51.13-6.368v-76.722l-51.13 4.261v78.829m-54.06 6.722 54.06-6.722v-78.829l-54.06 4.489v81.062m-57.23 7.149 57.23-7.149v-81.062l-57.23 4.73v83.481m-60.66 7.531 60.66-7.531v-83.481l-60.66 5.039v85.973m-64.46 8.008 64.46-8.008v-85.973l-64.46 5.352v88.629m-68.59 8.562 68.59-8.562v-88.629l-68.59 5.699v91.492m-73.16 9.098 73.16-9.098v-91.492l-73.16 6.063v94.527m429.29 23.281 48.48-8.051v-74.679l-48.48 6.011v76.719m-51.13 8.481 51.13-8.481v-76.719l-51.13 6.368v78.832m-54.06 8.98 54.06-8.98v-78.832l-54.06 6.722v81.09m-57.23 9.488 57.23-9.488v-81.09l-57.23 7.149v83.429m-60.66 10.039 60.66-10.039v-83.429l-60.66 7.531v85.937m-64.46 10.704 64.46-10.704v-85.937l-64.46 8.008v88.633m-68.59 11.367 68.59-11.367v-88.633l-68.59 8.562v91.438m-73.16 12.152 73.16-12.152v-91.438l-73.16 9.098v94.492" stroke-linecap="round" stroke-miterlimit="1" stroke-width="4.4"/><path d="m1050 149.99v760l480-80v-600z" stroke-width="8"/><path d="m250 189.99v280l400 40v-360z" stroke-width="8"/></g><path d="m567.66 244.56 81.481-4.059v-89.531l-81.481 8.121v85.469m-74.422 3.671 74.422-3.671v-85.469l-74.422 7.39v81.75m-68.238 3.399 68.238-3.399v-81.75l-68.238 6.79v78.359m-62.809 3.133 62.809-3.133v-78.359l-62.809 6.25v75.242m-57.972 2.89 57.972-2.89v-75.242l-57.972 5.781v72.351m-53.707 2.649 53.707-2.649v-72.351l-53.707 5.359v69.641m317.15 69.691h81.481v-89.492l-81.481 4.059v85.433m-74.422 0h74.422v-85.433l-74.422 3.671v81.762m-68.238 0h68.238v-81.762l-68.238 3.399v78.363m-62.809 0h62.809v-78.363l-62.809 3.133v75.23m-57.972 0h57.972v-75.23l-57.972 2.89v72.34m-53.707 0h53.707v-72.34l-53.707 2.649v69.691m317.15 85.469 81.481 4.059v-89.528h-81.481v85.469m-74.422-3.711 74.422 3.711v-85.469h-74.422v81.758m-68.238-3.398 68.238 3.398v-81.758h-68.238v78.36m-62.809-3.122 62.809 3.122v-78.36h-62.809v75.238m-57.972-2.89 57.972 2.89v-75.238h-57.972v72.348m-53.707-2.66 53.707 2.66v-72.348h-53.707v69.688m317.15 101.25 81.481 8.082v-89.492l-81.481-4.059v85.469m-74.422-7.418 74.422 7.418v-85.469l-74.422-3.711v81.762m-68.238-6.801 68.238 6.801v-81.762l-68.238-3.398v78.359m-62.809-6.25 62.809 6.25v-78.359l-62.809-3.122v75.231m-57.972-5.742 57.972 5.742v-75.231l-57.972-2.89v72.379m-53.707-5.348 53.707 5.348v-72.379l-53.707-2.66v69.691" fill="#fff"/><path d="m567.66 244.56 81.481-4.063v-89.527l-81.481 8.129v85.461m-74.422 3.679 74.422-3.679v-85.461l-74.422 7.379v81.761m-68.238 3.391 68.238-3.391v-81.761l-68.238 6.8v78.352m-62.809 3.129 62.809-3.129v-78.352l-62.809 6.243v75.238m-57.972 2.89 57.972-2.89v-75.238l-57.972 5.789v72.339m-53.707 2.661 53.707-2.661v-72.339l-53.707 5.347v69.653m317.15 69.679h81.481v-89.492l-81.481 4.063v85.429m-74.422 0h74.422v-85.429l-74.422 3.679v81.75m-68.238 0h68.238v-81.75l-68.238 3.391v78.359m-62.809 0h62.809v-78.359l-62.809 3.129v75.23m-57.972 0h57.972v-75.23l-57.972 2.89v72.34m-53.707 0h53.707v-72.34l-53.707 2.661v69.679m317.15 85.469 81.481 4.063v-89.532h-81.481v85.469m-74.422-3.711 74.422 3.711v-85.469h-74.422v81.758m-68.238-3.398 68.238 3.398v-81.758h-68.238v78.36m-62.809-3.121 62.809 3.121v-78.36h-62.809v75.239m-57.972-2.891 57.972 2.891v-75.239h-57.972v72.348m-53.707-2.656 53.707 2.656v-72.348h-53.707v69.692m317.15 101.25 81.481 8.09v-89.5l-81.481-4.063v85.473m-74.422-7.422 74.422 7.422v-85.473l-74.422-3.711v81.762m-68.238-6.801 68.238 6.801v-81.762l-68.238-3.398v78.359m-62.809-6.25 62.809 6.25v-78.359l-62.809-3.121v75.23m-57.972-5.738 57.972 5.738v-75.23l-57.972-2.891v72.383m-53.707-5.352 53.707 5.352v-72.383l-53.707-2.656v69.687" fill="none" stroke="#626262" stroke-dasharray="1.6, 1.6" stroke-linecap="round" stroke-miterlimit="1" stroke-width="1.6"/><path d="m90 189.99 937.38 480.82" fill="none" stroke="#000" stroke-miterlimit="3.9" stroke-width="8"/><path d="m96.988 193.59c1.9922-3.949 0.4336-8.75-3.4688-10.789-3.9492-1.992-8.75-0.461-10.789 3.48-1.9922 3.91-0.461 8.75 3.4804 10.778 3.9102 1.992 8.75 0.433 10.777-3.469z" fill-rule="evenodd"/><path d="m96.988 193.59c2-3.949 0.4375-8.754-3.4727-10.785-3.9453-1.985-8.7422-0.469-10.777 3.476-1.9922 3.907-0.4727 8.754 3.4726 10.789 3.9024 1.989 8.75 0.422 10.777-3.48z" fill="none" stroke="#000" stroke-width="2"/><path d="m935.08 663.35 101.68 12.418-69.42-75.309c4.14 25.59-8.942 50.941-32.258 62.891z" fill-rule="evenodd"/><path d="m935.08 663.35 101.67 12.425-69.406-75.316c4.144 25.582-8.942 50.941-32.262 62.891z" fill="none" stroke="#000" stroke-linejoin="round" stroke-width="5.5"/><g transform="scale(10)"><text transform="matrix(1 0 0 -1 .41641 10.643)" fill="#000000" font-family="Arial" font-size="8px" font-weight="bold"><tspan x="0 5.336 9.7840004" y="0">Eye</tspan><tspan x="17.193399 22.5294 26.9774 30.089399 34.537399 38.985401" y="-44.083199">Screen</tspan><tspan x="83.943001 88.695015 93.583015 98.031013 102.47902 104.70302 106.92702 111.81502 114.92702 117.15102" y="7.2754002">Voxel grid</tspan></text>
</g></g></g></svg>
